solid Visualization Toolkit generated SLA File
 facet normal 0.31527121610163339 -0.5848318061284542 0.74737930051502455
  outer loop
   vertex -84.65521240234375 -92.430717468261719 7.3210644721984863
   vertex -70.469123840332031 -86.504348754882812 5.9743099212646484
   vertex -67.460479736328125 -73.754531860351562 14.682016372680664
  endloop
 endfacet
 facet normal 0.33021817587487506 -0.60129618355606129 0.72759800436971078
  outer loop
   vertex -43.539920806884766 -71.154251098632812 7.9128484725952148
   vertex -57.472652435302734 -81.446434020996094 5.7305870056152344
   vertex -28.107345581054688 -66.791915893554688 4.5139093399047852
  endloop
 endfacet
 facet normal -0.7065182137285182 -0.2778125894342478 0.6508856879834598
  outer loop
   vertex -67.460479736328125 -73.754531860351562 14.682016372680664
   vertex -70.469123840332031 -86.504348754882812 5.9743099212646484
   vertex -67.850776672363281 -82.856033325195312 10.373635292053223
  endloop
 endfacet
 facet normal 0.32689871729150938 -0.81709467219865628 0.47486158540961815
  outer loop
   vertex -70.469123840332031 -86.504348754882812 5.9743099212646484
   vertex -57.472652435302734 -81.446434020996094 5.7305870056152344
   vertex -56.746109008789062 -78.33319091796875 10.587388038635254
  endloop
 endfacet
 facet normal 0.32223852918616519 -0.81401269343509308 0.48326562595997052
  outer loop
   vertex -56.746109008789062 -78.33319091796875 10.587388038635254
   vertex -67.850776672363281 -82.856033325195312 10.373635292053223
   vertex -70.469123840332031 -86.504348754882812 5.9743099212646484
  endloop
 endfacet
 facet normal -0.38744694575670297 -0.38081016544793178 0.83956445977382876
  outer loop
   vertex -51.778244018554688 -56.721145629882812 29.645156860351562
   vertex -67.460479736328125 -73.754531860351562 14.682016372680664
   vertex -67.850776672363281 -82.856033325195312 10.373635292053223
  endloop
 endfacet
 facet normal 0.26017132550716765 -0.67157088673340026 0.69376035161715444
  outer loop
   vertex -67.850776672363281 -82.856033325195312 10.373635292053223
   vertex -56.746109008789062 -78.33319091796875 10.587388038635254
   vertex -51.778244018554688 -56.721145629882812 29.645156860351562
  endloop
 endfacet
 facet normal 0.49804515366595331 -0.76197957973190855 0.41393012089172843
  outer loop
   vertex -57.472652435302734 -81.446434020996094 5.7305870056152344
   vertex -43.539920806884766 -71.154251098632812 7.9128484725952148
   vertex -56.746109008789062 -78.33319091796875 10.587388038635254
  endloop
 endfacet
 facet normal 0.45841597329802436 -0.59853214065776761 0.65697341805042253
  outer loop
   vertex -43.539920806884766 -71.154251098632812 7.9128484725952148
   vertex -43.390247344970703 -68.372108459472656 10.343067169189453
   vertex -56.746109008789062 -78.33319091796875 10.587388038635254
  endloop
 endfacet
 facet normal 0.4867646006706019 -0.63802174217796426 0.5966477017823707
  outer loop
   vertex -51.778244018554688 -56.721145629882812 29.645156860351562
   vertex -56.746109008789062 -78.33319091796875 10.587388038635254
   vertex -43.390247344970703 -68.372108459472656 10.343067169189453
  endloop
 endfacet
 facet normal 0.32002350102372062 -0.89885273547248068 0.29941395880312449
  outer loop
   vertex -28.107345581054688 -66.791915893554688 4.5139093399047852
   vertex -27.79168701171875 -64.650009155273438 10.606613159179688
   vertex -43.539920806884766 -71.154251098632812 7.9128484725952148
  endloop
 endfacet
 facet normal 0.14386366563935582 -0.6554023822396855 0.74145192903070456
  outer loop
   vertex -43.390247344970703 -68.372108459472656 10.343067169189453
   vertex -43.539920806884766 -71.154251098632812 7.9128484725952148
   vertex -27.79168701171875 -64.650009155273438 10.606613159179688
  endloop
 endfacet
 facet normal 0.15593573304910091 -0.60156867463600561 0.78345336610108396
  outer loop
   vertex -27.79168701171875 -64.650009155273438 10.606613159179688
   vertex -26.582042694091797 -57.736698150634766 15.674182891845703
   vertex -41.103435516357422 -61.390659332275391 15.75880241394043
  endloop
 endfacet
 facet normal 0.13867514227695801 -0.6349707768281474 0.75998770877476984
  outer loop
   vertex -41.103435516357422 -61.390659332275391 15.75880241394043
   vertex -43.390247344970703 -68.372108459472656 10.343067169189453
   vertex -27.79168701171875 -64.650009155273438 10.606613159179688
  endloop
 endfacet
 facet normal 0.50149879602629133 -0.62683767842308702 0.59629982600478304
  outer loop
   vertex -43.390247344970703 -68.372108459472656 10.343067169189453
   vertex -41.103435516357422 -61.390659332275391 15.75880241394043
   vertex -51.778244018554688 -56.721145629882812 29.645156860351562
  endloop
 endfacet
 facet normal 0.47938132168192438 -0.65178173928630334 0.58768538586169783
  outer loop
   vertex -51.778244018554688 -56.721145629882812 29.645156860351562
   vertex -41.103435516357422 -61.390659332275391 15.75880241394043
   vertex -8.5330963134765625 -31.214260101318359 22.658435821533203
  endloop
 endfacet
 facet normal 0.073548960719748799 -0.30046890437903517 0.95095162225967467
  outer loop
   vertex -26.582042694091797 -57.736698150634766 15.674182891845703
   vertex -9.3692998886108398 -41.527950286865234 19.464328765869141
   vertex -8.5330963134765625 -31.214260101318359 22.658435821533203
  endloop
 endfacet
 facet normal 0.082502061231605334 -0.30591047756470685 0.94847888200458597
  outer loop
   vertex -8.5330963134765625 -31.214260101318359 22.658435821533203
   vertex -41.103435516357422 -61.390659332275391 15.75880241394043
   vertex -26.582042694091797 -57.736698150634766 15.674182891845703
  endloop
 endfacet
 facet normal 0.3829764709349725 -0.30147099388825532 0.87318054407678014
  outer loop
   vertex -9.3692998886108398 -41.527950286865234 19.464328765869141
   vertex 15.43039608001709 -14.902439117431641 17.779819488525391
   vertex -8.5330963134765625 -31.214260101318359 22.658435821533203
  endloop
 endfacet
 facet normal -0.10042105616013694 0.41761771690650773 0.90305650654069181
  outer loop
   vertex -51.778244018554688 -56.721145629882812 29.645156860351562
   vertex -8.5330963134765625 -31.214260101318359 22.658435821533203
   vertex 15.43039608001709 -14.902439117431641 17.779819488525391
  endloop
 endfacet
 facet normal 0.15455628572760746 0.031784283668462247 0.98747258891260825
  outer loop
   vertex 15.43039608001709 -14.902439117431641 17.779819488525391
   vertex 15.467391967773438 16.318225860595703 16.769113540649414
   vertex -51.778244018554688 -56.721145629882812 29.645156860351562
  endloop
 endfacet
 facet normal 0.36096426651746488 0.021857298872403171 0.93232347218307821
  outer loop
   vertex 18.442739486694336 -12.609817504882812 16.295345306396484
   vertex 18.361970901489258 18.814538955688477 15.589906692504883
   vertex 15.467391967773438 16.318225860595703 16.769113540649414
  endloop
 endfacet
 facet normal 0.42413272881455633 0.028799553830609812 0.90514198557324466
  outer loop
   vertex 15.467391967773438 16.318225860595703 16.769113540649414
   vertex 15.43039608001709 -14.902439117431641 17.779819488525391
   vertex 18.442739486694336 -12.609817504882812 16.295345306396484
  endloop
 endfacet
 facet normal 0.33622863122127755 -0.037400892285666815 0.94103744920343213
  outer loop
   vertex 38.797023773193359 2.6632094383239746 7.8951683044433594
   vertex 38.643733978271484 37.173679351806641 9.321533203125
   vertex 34.76458740234375 32.960311889648438 10.540078163146973
  endloop
 endfacet
 facet normal 0.044594911628732532 -0.041057279822401996 0.99816110604972519
  outer loop
   vertex 38.643733978271484 37.173679351806641 9.321533203125
   vertex 38.797023773193359 2.6632094383239746 7.8951683044433594
   vertex 43.253910064697266 7.5040926933288574 7.895167350769043
  endloop
 endfacet
 facet normal 0.23722168083712553 -0.0098399150064508913 0.9714057083492329
  outer loop
   vertex 43.253910064697266 7.5040926933288574 7.895167350769043
   vertex 43.174530029296875 38.136943817138672 8.2248497009277344
   vertex 38.643733978271484 37.173679351806641 9.321533203125
  endloop
 endfacet
 facet normal 0.77592868088239975 -0.0047782434197852584 0.63080254483786002
  outer loop
   vertex 43.174530029296875 38.136943817138672 8.2248497009277344
   vertex 43.253910064697266 7.5040926933288574 7.895167350769043
   vertex 45.461021423339844 10.441080093383789 5.2025222778320312
  endloop
 endfacet
 facet normal 0.22359072928594576 -0.087474642294047666 0.97074990225748015
  outer loop
   vertex 45.461021423339844 10.441080093383789 5.2025222778320312
   vertex 45.381641387939453 41.073925018310547 7.9811429977416992
   vertex 43.174530029296875 38.136943817138672 8.2248497009277344
  endloop
 endfacet
 facet normal 0.25638299969671319 -0.11301422523449606 0.95994559343806662
  outer loop
   vertex 43.174530029296875 38.136943817138672 8.2248497009277344
   vertex 45.381641387939453 41.073925018310547 7.9811429977416992
   vertex 38.643733978271484 37.173679351806641 9.321533203125
  endloop
 endfacet
 facet normal 0.31154565069390944 -0.019563360635386624 0.9500297797723809
  outer loop
   vertex 41.728912353515625 42.359695434570312 9.2054691314697266
   vertex 45.642307281494141 45.224994659423828 7.9811429977416992
   vertex 45.902973175048828 49.376064300537109 7.981142520904541
  endloop
 endfacet
 facet normal 0.85941942260310766 -0.51127121574663126 1.2259168829940629e-06
  outer loop
   vertex 45.902973175048828 49.376064300537109 7.981142520904541
   vertex 44.8140869140625 47.545707702636719 9.0894060134887695
   vertex 41.728912353515625 42.359695434570312 9.2054691314697266
  endloop
 endfacet
 facet normal -0.57916679426862827 0.64578951232170678 0.497515557738542
  outer loop
   vertex 18.361970901489258 18.814538955688477 15.589906692504883
   vertex 44.8140869140625 47.545707702636719 9.0894060134887695
   vertex 45.902973175048828 49.376064300537109 7.981142520904541
  endloop
 endfacet
 facet normal 0.60706143618191855 -0.37227433338628807 0.70205999273747333
  outer loop
   vertex 45.902973175048828 49.376064300537109 7.981142520904541
   vertex 15.467391967773438 16.318225860595703 16.769113540649414
   vertex 18.361970901489258 18.814538955688477 15.589906692504883
  endloop
 endfacet
 facet normal 0.57173931094937092 -0.35666502529944344 -0.73885331429403878
  outer loop
   vertex 41.728912353515625 42.359695434570312 9.2054691314697266
   vertex 44.8140869140625 47.545707702636719 9.0894060134887695
   vertex 81.40045166015625 60.063068389892578 31.358180999755859
  endloop
 endfacet
 facet normal 0.32881278802712155 0.35714639371206724 -0.87425888836676757
  outer loop
   vertex 81.40045166015625 60.063068389892578 31.358180999755859
   vertex 81.842636108398438 59.655963897705078 31.358180999755859
   vertex 41.728912353515625 42.359695434570312 9.2054691314697266
  endloop
 endfacet
 facet normal 0.303759698619879 -0.028743494000117453 0.95231499885648419
  outer loop
   vertex 26.977706909179688 -6.1140570640563965 12.089333534240723
   vertex 26.563274383544922 25.887424468994141 13.187417984008789
   vertex 18.361970901489258 18.814538955688477 15.589906692504883
  endloop
 endfacet
 facet normal 0.42879933875953058 0.02137667170191317 0.90314681253179319
  outer loop
   vertex 18.361970901489258 18.814538955688477 15.589906692504883
   vertex 18.442739486694336 -12.609817504882812 16.295345306396484
   vertex 26.977706909179688 -6.1140570640563965 12.089333534240723
  endloop
 endfacet
 facet normal 0.33605968642029588 -0.037428550408186954 0.94109669576374266
  outer loop
   vertex 38.797023773193359 2.6632094383239746 7.8951683044433594
   vertex 34.76458740234375 32.960311889648438 10.540078163146973
   vertex 26.563274383544922 25.887424468994141 13.187417984008789
  endloop
 endfacet
 facet normal 0.3523970706614491 -0.02753476475119224 0.93544542401966246
  outer loop
   vertex 26.563274383544922 25.887424468994141 13.187417984008789
   vertex 26.977706909179688 -6.1140570640563965 12.089333534240723
   vertex 38.797023773193359 2.6632094383239746 7.8951683044433594
  endloop
 endfacet
 facet normal 0.59625797719800944 -0.33842367377299198 0.72797379187559319
  outer loop
   vertex 34.76458740234375 32.960311889648438 10.540078163146973
   vertex 38.643733978271484 37.173679351806641 9.321533203125
   vertex 41.728912353515625 42.359695434570312 9.2054691314697266
  endloop
 endfacet
 facet normal 0.47232834191786327 -0.22911393461409646 0.85112439889053204
  outer loop
   vertex 41.728912353515625 42.359695434570312 9.2054691314697266
   vertex 26.563274383544922 25.887424468994141 13.187417984008789
   vertex 34.76458740234375 32.960311889648438 10.540078163146973
  endloop
 endfacet
 facet normal 0.20215718871963753 -0.012694435119613033 0.97927081155621443
  outer loop
   vertex 38.643733978271484 37.173679351806641 9.321533203125
   vertex 45.381641387939453 41.073925018310547 7.9811429977416992
   vertex 45.642307281494141 45.224994659423828 7.9811429977416992
  endloop
 endfacet
 facet normal 0.45039643639906934 -0.24875186222446372 0.85747627437666196
  outer loop
   vertex 45.642307281494141 45.224994659423828 7.9811429977416992
   vertex 41.728912353515625 42.359695434570312 9.2054691314697266
   vertex 38.643733978271484 37.173679351806641 9.321533203125
  endloop
 endfacet
 facet normal -0.80145437090837401 0.48864662692860156 -0.34481207250205514
  outer loop
   vertex 17.716520309448242 19.408790588378906 15.589906692504883
   vertex 43.177356719970703 72.295249938964844 31.358180999755859
   vertex 24.089046478271484 28.165388107299805 13.187417984008789
  endloop
 endfacet
 facet normal 0.56347225703916026 -0.6438957361981329 -0.51758796011215236
  outer loop
   vertex 26.563274383544922 25.887424468994141 13.187417984008789
   vertex 41.728912353515625 42.359695434570312 9.2054691314697266
   vertex 81.842636108398438 59.655963897705078 31.358180999755859
  endloop
 endfacet
 facet normal 0.56502811775567219 -0.65494535264321196 -0.5017866191884166
  outer loop
   vertex 81.842636108398438 59.655963897705078 31.358180999755859
   vertex 68.968856811523438 48.54962158203125 31.358180999755859
   vertex 26.563274383544922 25.887424468994141 13.187417984008789
  endloop
 endfacet
 facet normal 0.11906942866489334 -0.28120916904403198 0.95223099844679548
  outer loop
   vertex 89.615806579589844 -8.9842987060546875 6.6360130310058594
   vertex -13.859152793884277 -55.254795074462891 5.9103660583496094
   vertex -13.771786689758301 -59.946483612060547 4.5139102935791016
  endloop
 endfacet
 facet normal 0.09712300678539082 -0.23728341952060392 0.96657317383298713
  outer loop
   vertex -13.771786689758301 -59.946483612060547 4.5139102935791016
   vertex 89.860443115234375 -12.151180267333984 5.8339958190917969
   vertex 89.615806579589844 -8.9842987060546875 6.6360130310058594
  endloop
 endfacet
 facet normal -0.021545879861541481 0.29435333524302476 0.95545376083424349
  outer loop
   vertex 89.0250244140625 -2.2469525337219238 6.8123054504394531
   vertex 88.18792724609375 2.916999340057373 5.2025337219238281
   vertex 63.569580078125 1.1150050163269043 5.2025327682495117
  endloop
 endfacet
 facet normal -0.025357813868632915 0.26901004478040275 0.9628034986865438
  outer loop
   vertex 63.569580078125 1.1150050163269043 5.2025327682495117
   vertex 39.227130889892578 -1.1795639991760254 5.2025232315063477
   vertex 89.0250244140625 -2.2469525337219238 6.8123054504394531
  endloop
 endfacet
 facet normal 0.24958264172292269 0.022459341039416918 0.96809301358427458
  outer loop
   vertex 89.0250244140625 -2.2469525337219238 6.8123054504394531
   vertex 89.51043701171875 -7.6411900520324707 6.8123059272766113
   vertex 94.720237731933594 3.8521952629089355 5.2025332450866699
  endloop
 endfacet
 facet normal 0.2331532673548482 0.03044862027684879 0.97196318626015621
  outer loop
   vertex 89.51043701171875 -7.6411900520324707 6.8123059272766113
   vertex 95.902641296386719 -5.2018017768859863 5.2025337219238281
   vertex 94.720237731933594 3.8521952629089355 5.2025332450866699
  endloop
 endfacet
 facet normal 0.33421842252843803 -0.20704023876412914 0.91947397221188099
  outer loop
   vertex 89.860443115234375 -12.151180267333984 5.8339958190917969
   vertex 95.902641296386719 -5.2018017768859863 5.2025337219238281
   vertex 89.615806579589844 -8.9842987060546875 6.6360130310058594
  endloop
 endfacet
 facet normal 0.27980352152358073 -0.10333141456757419 0.95448028167504173
  outer loop
   vertex 95.902641296386719 -5.2018017768859863 5.2025337219238281
   vertex 89.51043701171875 -7.6411900520324707 6.8123059272766113
   vertex 89.615806579589844 -8.9842987060546875 6.6360130310058594
  endloop
 endfacet
 facet normal -0.02148940481096286 0.08968390922305533 0.99573842042342697
  outer loop
   vertex 89.0250244140625 -2.2469525337219238 6.8123054504394531
   vertex 30.291732788085938 -15.980276107788086 6.7816896438598633
   vertex 18.765172958374023 -32.321887969970703 8.0047826766967773
  endloop
 endfacet
 facet normal 0.016340632560532652 0.0014705369655312335 0.99986540156590809
  outer loop
   vertex 18.765172958374023 -32.321887969970703 8.0047826766967773
   vertex 89.51043701171875 -7.6411900520324707 6.8123059272766113
   vertex 89.0250244140625 -2.2469525337219238 6.8123054504394531
  endloop
 endfacet
 facet normal 0.60217453475500515 -0.51713790763526768 0.60823861615258412
  outer loop
   vertex -9.3692998886108398 -41.527950286865234 19.464328765869141
   vertex 1.8433084487915039 -42.406040191650391 7.6169376373291016
   vertex 25.067806243896484 -14.906404495239258 8.0047836303710938
  endloop
 endfacet
 facet normal 0.57400096058478234 -0.44424325610219467 0.68787413576574252
  outer loop
   vertex 25.067806243896484 -14.906404495239258 8.0047836303710938
   vertex 38.797023773193359 2.6632094383239746 7.8951683044433594
   vertex 26.977706909179688 -6.1140570640563965 12.089333534240723
  endloop
 endfacet
 facet normal 0.27812785779438487 -0.7522176570247745 -0.5973386737679599
  outer loop
   vertex 26.977706909179688 -6.1140570640563965 12.089333534240723
   vertex 18.442739486694336 -12.609817504882812 16.295345306396484
   vertex 15.43039608001709 -14.902439117431641 17.779819488525391
  endloop
 endfacet
 facet normal 0.60545554048228722 -0.52615770015310093 0.59714459142564547
  outer loop
   vertex 15.43039608001709 -14.902439117431641 17.779819488525391
   vertex -9.3692998886108398 -41.527950286865234 19.464328765869141
   vertex 25.067806243896484 -14.906404495239258 8.0047836303710938
  endloop
 endfacet
 facet normal 0.64167188129694108 -0.43336406431597968 0.63281338837952816
  outer loop
   vertex 25.067806243896484 -14.906404495239258 8.0047836303710938
   vertex 26.977706909179688 -6.1140570640563965 12.089333534240723
   vertex 15.43039608001709 -14.902439117431641 17.779819488525391
  endloop
 endfacet
 facet normal 0.13390239787755442 -0.2804156900521389 0.95049312917833539
  outer loop
   vertex -13.859152793884277 -55.254795074462891 5.9103660583496094
   vertex -28.107345581054688 -66.791915893554688 4.5139093399047852
   vertex -13.771786689758301 -59.946483612060547 4.5139102935791016
  endloop
 endfacet
 facet normal 0.18957676506958923 -0.35335533751489157 0.91607895707492737
  outer loop
   vertex -13.859152793884277 -55.254795074462891 5.9103660583496094
   vertex 18.765172958374023 -32.321887969970703 8.0047826766967773
   vertex 1.8433084487915039 -42.406040191650391 7.6169376373291016
  endloop
 endfacet
 facet normal 0.049468885896505409 -0.12616557606169074 0.99077498794891883
  outer loop
   vertex -13.859152793884277 -55.254795074462891 5.9103660583496094
   vertex 89.615806579589844 -8.9842987060546875 6.6360130310058594
   vertex 89.51043701171875 -7.6411900520324707 6.8123059272766113
  endloop
 endfacet
 facet normal 0.093863400535093261 -0.22216206596291252 0.97048115823393455
  outer loop
   vertex 89.51043701171875 -7.6411900520324707 6.8123059272766113
   vertex 18.765172958374023 -32.321887969970703 8.0047826766967773
   vertex -13.859152793884277 -55.254795074462891 5.9103660583496094
  endloop
 endfacet
 facet normal -0.029415321690832719 0.12358923309590292 0.99189739404466204
  outer loop
   vertex 39.227130889892578 -1.1795639991760254 5.2025232315063477
   vertex 30.291732788085938 -15.980276107788086 6.7816896438598633
   vertex 89.0250244140625 -2.2469525337219238 6.8123054504394531
  endloop
 endfacet
 facet normal -0.39139279683768036 0.70527473526572226 0.59110001385505284
  outer loop
   vertex -0.064855575561523438 38.442432403564453 7.8951683044433594
   vertex -3.9300098419189453 38.554203033447266 5.2025232315063477
   vertex -17.943511962890625 28.428787231445312 8.0047836303710938
  endloop
 endfacet
 facet normal 0.0052659331488914213 0.0015444791345601094 0.99998494215276779
  outer loop
   vertex -17.943511962890625 28.428787231445312 8.0047836303710938
   vertex -16.442543029785156 23.311203002929688 8.0047836303710938
   vertex -0.064855575561523438 38.442432403564453 7.8951683044433594
  endloop
 endfacet
 facet normal 0.49879609954049309 -0.45922958274051956 0.73505825716004236
  outer loop
   vertex 39.227130889892578 -1.1795639991760254 5.2025232315063477
   vertex 43.253910064697266 7.5040926933288574 7.895167350769043
   vertex 38.797023773193359 2.6632094383239746 7.8951683044433594
  endloop
 endfacet
 facet normal 0.86296957089857462 -0.46293971339226847 0.20241131753786526
  outer loop
   vertex 43.253910064697266 7.5040926933288574 7.895167350769043
   vertex 39.227130889892578 -1.1795639991760254 5.2025232315063477
   vertex 45.461021423339844 10.441080093383789 5.2025222778320312
  endloop
 endfacet
 facet normal -0.041687095922189388 0.29118337976452818 0.95575856019314887
  outer loop
   vertex 88.18792724609375 2.916999340057373 5.2025337219238281
   vertex 89.0250244140625 -2.2469525337219238 6.8123054504394531
   vertex 94.720237731933594 3.8521952629089355 5.2025332450866699
  endloop
 endfacet
 facet normal 0.98331157348110221 -0.18147490486244527 0.012853340549652049
  outer loop
   vertex -26.582042694091797 -57.736698150634766 15.674182891845703
   vertex -27.79168701171875 -64.650009155273438 10.606613159179688
   vertex -28.107345581054688 -66.791915893554688 4.5139093399047852
  endloop
 endfacet
 facet normal 0.4958859474270666 -0.67807724397718072 0.54250196160444564
  outer loop
   vertex -28.107345581054688 -66.791915893554688 4.5139093399047852
   vertex -13.859152793884277 -55.254795074462891 5.9103660583496094
   vertex 1.8433084487915039 -42.406040191650391 7.6169376373291016
  endloop
 endfacet
 facet normal 0.51342172618506299 -0.67046626443621837 0.53560537649849349
  outer loop
   vertex 1.8433084487915039 -42.406040191650391 7.6169376373291016
   vertex -9.3692998886108398 -41.527950286865234 19.464328765869141
   vertex -26.582042694091797 -57.736698150634766 15.674182891845703
  endloop
 endfacet
 facet normal 0.5169167191402001 -0.69794544447174767 0.49565034249404677
  outer loop
   vertex -28.107345581054688 -66.791915893554688 4.5139093399047852
   vertex 1.8433084487915039 -42.406040191650391 7.6169376373291016
   vertex -26.582042694091797 -57.736698150634766 15.674182891845703
  endloop
 endfacet
 facet normal 0.36267866245785951 -0.93191425989614396 0
  outer loop
   vertex -57.472652435302734 -81.446434020996094 5.7305870056152344
   vertex -70.469123840332031 -86.504348754882812 5.9743099212646484
   vertex -70.469123840332031 -86.504348754882812 3.9407377243041992
  endloop
 endfacet
 facet normal 0.36267866245785957 -0.93191425989614418 0
  outer loop
   vertex -70.469123840332031 -86.504348754882812 3.9407377243041992
   vertex -57.472652435302734 -81.446434020996094 3.9407367706298828
   vertex -57.472652435302734 -81.446434020996094 5.7305870056152344
  endloop
 endfacet
 facet normal -0.60883681627337305 0.26597304600841237 0.7473794685078724
  outer loop
   vertex -84.65521240234375 -92.430717468261719 7.3210644721984863
   vertex -67.460479736328125 -73.754531860351562 14.682016372680664
   vertex -79.918792724609375 -77.80426025390625 5.9743099212646484
  endloop
 endfacet
 facet normal -0.62647831634603335 0.27951171850851503 0.72759749749752156
  outer loop
   vertex -66.841522216796875 -49.701011657714844 7.9128484725952148
   vertex -63.766586303710938 -33.961277008056641 4.5139093399047852
   vertex -75.949775695800781 -64.434974670410156 5.7305870056152344
  endloop
 endfacet
 facet normal -0.21860788423600169 -0.72702034527747195 0.65088555868330988
  outer loop
   vertex -67.460479736328125 -73.754531860351562 14.682016372680664
   vertex -76.498802185058594 -74.893997192382812 10.373635292053223
   vertex -79.918792724609375 -77.80426025390625 5.9743099212646484
  endloop
 endfacet
 facet normal -0.83781144927486983 0.25401798689739352 0.48326683912362306
  outer loop
   vertex -79.918792724609375 -77.80426025390625 5.9743099212646484
   vertex -76.498802185058594 -74.893997192382812 10.373635292053223
   vertex -72.90704345703125 -63.454189300537109 10.587388038635254
  endloop
 endfacet
 facet normal -0.84126767080210951 0.25840875078710773 0.47486168889460861
  outer loop
   vertex -72.90704345703125 -63.454189300537109 10.587388038635254
   vertex -75.949775695800781 -64.434974670410156 5.7305870056152344
   vertex -79.918792724609375 -77.80426025390625 5.9743099212646484
  endloop
 endfacet
 facet normal -0.34756497843977296 -0.41752855439426245 0.83956446567705423
  outer loop
   vertex -51.778244018554688 -56.721145629882812 29.645156860351562
   vertex -76.498802185058594 -74.893997192382812 10.373635292053223
   vertex -67.460479736328125 -73.754531860351562 14.682016372680664
  endloop
 endfacet
 facet normal -0.69073722874802601 0.20390799241602098 0.69376048565075032
  outer loop
   vertex -76.498802185058594 -74.893997192382812 10.373635292053223
   vertex -51.778244018554688 -56.721145629882812 29.645156860351562
   vertex -72.90704345703125 -63.454189300537109 10.587388038635254
  endloop
 endfacet
 facet normal -0.8004528660448087 0.43351701671605791 0.41393019394368985
  outer loop
   vertex -75.949775695800781 -64.434974670410156 5.7305870056152344
   vertex -72.90704345703125 -63.454189300537109 10.587388038635254
   vertex -66.841522216796875 -49.701011657714844 7.9128484725952148
  endloop
 endfacet
 facet normal -0.63429457277239987 0.40750057507503462 0.65697311685105864
  outer loop
   vertex -66.841522216796875 -49.701011657714844 7.9128484725952148
   vertex -72.90704345703125 -63.454189300537109 10.587388038635254
   vertex -64.081199645996094 -49.322437286376953 10.343067169189453
  endloop
 endfacet
 facet normal -0.67598695894019278 0.43249618575980031 0.59664786989145802
  outer loop
   vertex -51.778244018554688 -56.721145629882812 29.645156860351562
   vertex -64.081199645996094 -49.322437286376953 10.343067169189453
   vertex -72.90704345703125 -63.454189300537109 10.587388038635254
  endloop
 endfacet
 facet normal -0.92218080918818124 0.24481556496357579 0.29941258209466826
  outer loop
   vertex -63.766586303710938 -33.961277008056641 4.5139093399047852
   vertex -66.841522216796875 -49.701011657714844 7.9128484725952148
   vertex -61.658012390136719 -33.470073699951172 10.606613159179688
  endloop
 endfacet
 facet normal -0.66503366623014648 0.089330182521115409 0.74145150972348439
  outer loop
   vertex -64.081199645996094 -49.322437286376953 10.343067169189453
   vertex -61.658012390136719 -33.470073699951172 10.606613159179688
   vertex -66.841522216796875 -49.701011657714844 7.9128484725952148
  endloop
 endfacet
 facet normal -0.64424302719681992 0.085843962643709207 0.75998798410626411
  outer loop
   vertex -61.658012390136719 -33.470073699951172 10.606613159179688
   vertex -64.081199645996094 -49.322437286376953 10.343067169189453
   vertex -57.312088012695312 -46.467731475830078 15.75880241394043
  endloop
 endfacet
 facet normal -0.61237833724945745 0.10579983425677596 0.78345335990014653
  outer loop
   vertex -57.312088012695312 -46.467731475830078 15.75880241394043
   vertex -54.867992401123047 -31.694488525390625 15.674182891845703
   vertex -61.658012390136719 -33.470073699951172 10.606613159179688
  endloop
 endfacet
 facet normal -0.66605562359555481 0.44810293439226195 0.59629998026646036
  outer loop
   vertex -64.081199645996094 -49.322437286376953 10.343067169189453
   vertex -51.778244018554688 -56.721145629882812 29.645156860351562
   vertex -57.312088012695312 -46.467731475830078 15.75880241394043
  endloop
 endfacet
 facet normal -0.68909128733940117 0.42400358793193677 0.58768542191700757
  outer loop
   vertex -51.778244018554688 -56.721145629882812 29.645156860351562
   vertex -29.924167633056641 -11.520000457763672 22.658435821533203
   vertex -57.312088012695312 -46.467731475830078 15.75880241394043
  endloop
 endfacet
 facet normal -0.31167156139316043 0.05699594414860102 0.94847894028774249
  outer loop
   vertex -54.867992401123047 -31.694488525390625 15.674182891845703
   vertex -57.312088012695312 -46.467731475830078 15.75880241394043
   vertex -29.924167633056641 -11.520000457763672 22.658435821533203
  endloop
 endfacet
 facet normal -0.3055104405753874 0.048522289475427118 0.95095160661491895
  outer loop
   vertex -29.924167633056641 -11.520000457763672 22.658435821533203
   vertex -40.133781433105469 -13.203811645507812 19.464328765869141
   vertex -54.867992401123047 -31.694488525390625 15.674182891845703
  endloop
 endfacet
 facet normal -0.33202414742757402 0.35681331509731828 0.87318052182481409
  outer loop
   vertex -40.133781433105469 -13.203811645507812 19.464328765869141
   vertex -29.924167633056641 -11.520000457763672 22.658435821533203
   vertex -15.643898963928223 13.706935882568359 17.779819488525391
  endloop
 endfacet
 facet normal 0.018931508355484458 0.15665083474239275 0.98747258896938384
  outer loop
   vertex -51.778244018554688 -56.721145629882812 29.645156860351562
   vertex 15.467391967773438 16.318225860595703 16.769113540649414
   vertex -15.643898963928223 13.706935882568359 17.779819488525391
  endloop
 endfacet
 facet normal 0.42447607193205861 -0.065642771936516381 0.90305652694037941
  outer loop
   vertex -15.643898963928223 13.706935882568359 17.779819488525391
   vertex -29.924167633056641 -11.520000457763672 22.658435821533203
   vertex -51.778244018554688 -56.721145629882812 29.645156860351562
  endloop
 endfacet
 facet normal -0.0062720220677954146 0.42506312708298583 0.90514197766627447
  outer loop
   vertex -13.607478141784668 16.898067474365234 16.295345306396484
   vertex -15.643898963928223 13.706935882568359 17.779819488525391
   vertex 15.467391967773438 16.318225860595703 16.769113540649414
  endloop
 endfacet
 facet normal -0.0079818372518728978 0.36153729472571294 0.93232348184334468
  outer loop
   vertex 15.467391967773438 16.318225860595703 16.769113540649414
   vertex 17.716520309448242 19.408790588378906 15.589906692504883
   vertex -13.607478141784668 16.898067474365234 16.295345306396484
  endloop
 endfacet
 facet normal -0.064998521380678687 0.33199936430452337 0.94103752014450415
  outer loop
   vertex -0.064855575561523438 38.442432403564453 7.8951683044433594
   vertex 30.461582183837891 36.921989440917969 10.540078163146973
   vertex 34.340728759765625 41.135356903076172 9.321533203125
  endloop
 endfacet
 facet normal -0.029367438096353653 0.23560225723394007 0.97140574939925561
  outer loop
   vertex 34.340728759765625 41.135356903076172 9.321533203125
   vertex 34.927104949951172 45.730155944824219 8.2248497009277344
   vertex 4.3920316696166992 43.283313751220703 7.895167350769043
  endloop
 endfacet
 facet normal -0.044594700307318831 0.041057503509990781 0.99816110628997534
  outer loop
   vertex 4.3920316696166992 43.283313751220703 7.895167350769043
   vertex -0.064855575561523438 38.442432403564453 7.8951683044433594
   vertex 34.340728759765625 41.135356903076172 9.321533203125
  endloop
 endfacet
 facet normal -0.10561377855607898 0.21561679326522676 0.97074977632813708
  outer loop
   vertex 34.927104949951172 45.730155944824219 8.2248497009277344
   vertex 37.672088623046875 48.171924591064453 7.9811429977416992
   vertex 7.137019157409668 45.725090026855469 5.2025222778320312
  endloop
 endfacet
 facet normal -0.06874421278465874 0.77289212934167573 0.63080265504380051
  outer loop
   vertex 7.137019157409668 45.725090026855469 5.2025222778320312
   vertex 4.3920316696166992 43.283313751220703 7.895167350769043
   vertex 34.927104949951172 45.730155944824219 8.2248497009277344
  endloop
 endfacet
 facet normal -0.1337694911450493 0.24619052164245925 0.95994580591417156
  outer loop
   vertex 34.927104949951172 45.730155944824219 8.2248497009277344
   vertex 34.340728759765625 41.135356903076172 9.321533203125
   vertex 37.672088623046875 48.171924591064453 7.9811429977416992
  endloop
 endfacet
 facet normal -0.5803972203897968 0.81433351063910053 -3.741074882587432e-06
  outer loop
   vertex 39.254684448242188 44.637657165527344 9.2054691314697266
   vertex 44.168636322021484 48.139961242675781 9.0894060134887695
   vertex 45.902973175048828 49.376064300537109 7.981142520904541
  endloop
 endfacet
 facet normal -0.045185947552409504 0.3088709305398436 0.95002998816418538
  outer loop
   vertex 45.902973175048828 49.376064300537109 7.981142520904541
   vertex 41.787528991699219 48.773998260498047 7.9811429977416992
   vertex 39.254684448242188 44.637657165527344 9.2054691314697266
  endloop
 endfacet
 facet normal -0.42106354343743563 0.57429651403751902 0.70206054322420397
  outer loop
   vertex 17.716520309448242 19.408790588378906 15.589906692504883
   vertex 15.467391967773438 16.318225860595703 16.769113540649414
   vertex 45.902973175048828 49.376064300537109 7.981142520904541
  endloop
 endfacet
 facet normal 0.69134659848341207 -0.52394172779617365 0.49751879023749074
  outer loop
   vertex 45.902973175048828 49.376064300537109 7.981142520904541
   vertex 44.168636322021484 48.139961242675781 9.0894060134887695
   vertex 17.716520309448242 19.408790588378906 15.589906692504883
  endloop
 endfacet
 facet normal -0.54294365998615113 0.65744369339949593 0.52247485306957342
  outer loop
   vertex 68.254905700683594 49.206943511962891 31.358180999755859
   vertex 81.40045166015625 60.063068389892578 31.358180999755859
   vertex 44.8140869140625 47.545707702636719 9.0894060134887695
  endloop
 endfacet
 facet normal -0.55598651140407818 0.6336037432239312 0.53798261654940627
  outer loop
   vertex 44.8140869140625 47.545707702636719 9.0894060134887695
   vertex 18.361970901489258 18.814538955688477 15.589906692504883
   vertex 68.254905700683594 49.206943511962891 31.358180999755859
  endloop
 endfacet
 facet normal -0.014054432657698129 0.42910174257081796 0.90314681389315521
  outer loop
   vertex -7.8376226425170898 25.939601898193359 12.089333534240723
   vertex -13.607478141784668 16.898067474365234 16.295345306396484
   vertex 17.716520309448242 19.408790588378906 15.589906692504883
  endloop
 endfacet
 facet normal -0.053693304939329681 0.30035502445199719 0.95231501526077611
  outer loop
   vertex 17.716520309448242 19.408790588378906 15.589906692504883
   vertex 24.089046478271484 28.165388107299805 13.187417984008789
   vertex -7.8376226425170898 25.939601898193359 12.089333534240723
  endloop
 endfacet
 facet normal -0.056499279204010974 0.34892646393445143 0.93544543091279631
  outer loop
   vertex -0.064855575561523438 38.442432403564453 7.8951683044433594
   vertex -7.8376226425170898 25.939601898193359 12.089333534240723
   vertex 24.089046478271484 28.165388107299805 13.187417984008789
  endloop
 endfacet
 facet normal -0.065012127201242401 0.33182905384931932 0.94109664877643429
  outer loop
   vertex 24.089046478271484 28.165388107299805 13.187417984008789
   vertex 30.461582183837891 36.921989440917969 10.540078163146973
   vertex -0.064855575561523438 38.442432403564453 7.8951683044433594
  endloop
 endfacet
 facet normal -0.26728188641407652 0.45182798283920134 0.85112388470679812
  outer loop
   vertex 30.461582183837891 36.921989440917969 10.540078163146973
   vertex 24.089046478271484 28.165388107299805 13.187417984008789
   vertex 39.254684448242188 44.637657165527344 9.2054691314697266
  endloop
 endfacet
 facet normal -0.38643628266521257 0.56631997538896484 0.72797574473009341
  outer loop
   vertex 39.254684448242188 44.637657165527344 9.2054691314697266
   vertex 34.340728759765625 41.135356903076172 9.321533203125
   vertex 30.461582183837891 36.921989440917969 10.540078163146973
  endloop
 endfacet
 facet normal -0.28504266631479847 0.42834971808993783 0.85747722849788921
  outer loop
   vertex 34.340728759765625 41.135356903076172 9.321533203125
   vertex 39.254684448242188 44.637657165527344 9.2054691314697266
   vertex 41.787528991699219 48.773998260498047 7.9811429977416992
  endloop
 endfacet
 facet normal -0.029321012926575369 0.20042211837851306 0.97927077596833689
  outer loop
   vertex 41.787528991699219 48.773998260498047 7.9811429977416992
   vertex 37.672088623046875 48.171924591064453 7.9811429977416992
   vertex 34.340728759765625 41.135356903076172 9.321533203125
  endloop
 endfacet
 facet normal -0.69930650992492749 0.50909796333711721 -0.50178647740111204
  outer loop
   vertex 24.089046478271484 28.165388107299805 13.187417984008789
   vertex 43.177356719970703 72.295249938964844 31.358180999755859
   vertex 53.184318542480469 86.041000366210938 31.358180999755859
  endloop
 endfacet
 facet normal -0.68816593490584099 0.5084585210447049 -0.51758823249007624
  outer loop
   vertex 53.184318542480469 86.041000366210938 31.358180999755859
   vertex 39.254684448242188 44.637657165527344 9.2054691314697266
   vertex 24.089046478271484 28.165388107299805 13.187417984008789
  endloop
 endfacet
 facet normal -0.24448547744837568 0.077226714156562001 0.96657275253206909
  outer loop
   vertex -15.863156318664551 88.127708435058594 6.6360130310058594
   vertex -19.039409637451172 88.110359191894531 5.8339958190917969
   vertex -58.126560211181641 -19.110076904296875 4.5139102935791016
  endloop
 endfacet
 facet normal -0.29007053998737209 0.095476019611291388 0.95223075539000457
  outer loop
   vertex -58.126560211181641 -19.110076904296875 4.5139102935791016
   vertex -53.443656921386719 -18.810272216796875 5.9103660583496094
   vertex -15.863156318664551 88.127708435058594 6.6360130310058594
  endloop
 endfacet
 facet normal 0.270184740169787 -0.0030892529669779359 0.96280354314651906
  outer loop
   vertex -9.1000337600708008 88.094482421875 6.8123054504394531
   vertex -3.9300098419189453 38.554203033447266 5.2025232315063477
   vertex -3.6505002975463867 63.002960205078125 5.2025327682495117
  endloop
 endfacet
 facet normal 0.29512748686083179 0.0027995000699853386 0.95545378187464813
  outer loop
   vertex -3.6505002975463867 63.002960205078125 5.2025327682495117
   vertex -3.8846406936645508 87.686065673828125 5.2025337219238281
   vertex -9.1000337600708008 88.094482421875 6.8123054504394531
  endloop
 endfacet
 facet normal 0.0018024984546167826 0.25058432792917212 0.9680930975870069
  outer loop
   vertex -9.1000337600708008 88.094482421875 6.8123054504394531
   vertex -3.4912843704223633 94.273239135742188 5.2025332450866699
   vertex -14.515931129455566 88.133438110351562 6.8123059272766113
  endloop
 endfacet
 facet normal 0.011119155684143844 0.2348699946069151 0.97196319375283935
  outer loop
   vertex -14.515931129455566 88.133438110351562 6.8123059272766113
   vertex -3.4912843704223633 94.273239135742188 5.2025332450866699
   vertex -12.611935615539551 94.705024719238281 5.2025337219238281
  endloop
 endfacet
 facet normal -0.23389681083507521 0.31600964071330812 0.9194727776597994
  outer loop
   vertex -19.039409637451172 88.110359191894531 5.8339958190917969
   vertex -15.863156318664551 88.127708435058594 6.6360130310058594
   vertex -12.611935615539551 94.705024719238281 5.2025337219238281
  endloop
 endfacet
 facet normal -0.12604950703731949 0.27032957679634678 0.9544807183410029
  outer loop
   vertex -12.611935615539551 94.705024719238281 5.2025337219238281
   vertex -15.863156318664551 88.127708435058594 6.6360130310058594
   vertex -14.515931129455566 88.133438110351562 6.8123059272766113
  endloop
 endfacet
 facet normal -0.017553261943533585 0.020973187913704089 0.99962593422933865
  outer loop
   vertex -14.515931129455566 88.133438110351562 6.8123059272766113
   vertex -33.279006958007812 15.593971252441406 8.0047826766967773
   vertex -17.943511962890625 28.428787231445312 8.0047836303710938
  endloop
 endfacet
 facet normal -0.56503155867275401 0.55748118936388924 0.60823849040426681
  outer loop
   vertex -16.442543029785156 23.311203002929688 8.0047836303710938
   vertex -41.933456420898438 -2.1017937660217285 7.6169376373291016
   vertex -40.133781433105469 -13.203811645507812 19.464328765869141
  endloop
 endfacet
 facet normal -0.65053048396363644 0.61951020516214383 0.43933722256826313
  outer loop
   vertex -40.133781433105469 -13.203811645507812 19.464328765869141
   vertex -15.643898963928223 13.706935882568359 17.779819488525391
   vertex -13.607478141784668 16.898067474365234 16.295345306396484
  endloop
 endfacet
 facet normal -0.49006147511410053 0.53541421184876481 0.68787453242532393
  outer loop
   vertex -7.8376226425170898 25.939601898193359 12.089333534240723
   vertex -0.064855575561523438 38.442432403564453 7.8951683044433594
   vertex -16.442543029785156 23.311203002929688 8.0047836303710938
  endloop
 endfacet
 facet normal -0.65053064277680461 0.61951030546509456 0.43933684597463818
  outer loop
   vertex -40.133781433105469 -13.203811645507812 19.464328765869141
   vertex -13.607478141784668 16.898067474365234 16.295345306396484
   vertex -7.8376226425170898 25.939601898193359 12.089333534240723
  endloop
 endfacet
 facet normal -0.49012072130368828 0.5341626200555265 0.68880474293094673
  outer loop
   vertex -40.133781433105469 -13.203811645507812 19.464328765869141
   vertex -7.8376226425170898 25.939601898193359 12.089333534240723
   vertex -16.442543029785156 23.311203002929688 8.0047836303710938
  endloop
 endfacet
 facet normal -0.29050287927114843 0.11032394022949907 0.95049287495878187
  outer loop
   vertex -58.126560211181641 -19.110076904296875 4.5139102935791016
   vertex -63.766586303710938 -33.961277008056641 4.5139093399047852
   vertex -53.443656921386719 -18.810272216796875 5.9103660583496094
  endloop
 endfacet
 facet normal -0.36778303077315244 0.15979318968377312 0.91607957012805397
  outer loop
   vertex -53.443656921386719 -18.810272216796875 5.9103660583496094
   vertex -41.933456420898438 -2.1017937660217285 7.6169376373291016
   vertex -33.279006958007812 15.593971252441406 8.0047826766967773
  endloop
 endfacet
 facet normal -0.22914529727865024 0.075224523386559522 0.97048117128378331
  outer loop
   vertex -53.443656921386719 -18.810272216796875 5.9103660583496094
   vertex -33.279006958007812 15.593971252441406 8.0047826766967773
   vertex -14.515931129455566 88.133438110351562 6.8123059272766113
  endloop
 endfacet
 facet normal -0.12981457877016808 0.038896787737396833 0.99077505774138053
  outer loop
   vertex -14.515931129455566 88.133438110351562 6.8123059272766113
   vertex -15.863156318664551 88.127708435058594 6.6360130310058594
   vertex -53.443656921386719 -18.810272216796875 5.9103660583496094
  endloop
 endfacet
 facet normal 0.20342333203937879 -0.010583862472307399 0.97903367145219478
  outer loop
   vertex -3.9300098419189453 38.554203033447266 5.2025232315063477
   vertex -9.1000337600708008 88.094482421875 6.8123054504394531
   vertex -17.943511962890625 28.428787231445312 8.0047836303710938
  endloop
 endfacet
 facet normal 0.03101833743609601 -0.037061887902886038 0.99883145685734898
  outer loop
   vertex -17.943511962890625 28.428787231445312 8.0047836303710938
   vertex -33.279006958007812 15.593971252441406 8.0047826766967773
   vertex -41.933456420898438 -2.1017937660217285 7.6169376373291016
  endloop
 endfacet
 facet normal -0.011771839185383416 -0.003452637829450851 0.99992474871572812
  outer loop
   vertex -41.933456420898438 -2.1017937660217285 7.6169376373291016
   vertex -16.442543029785156 23.311203002929688 8.0047836303710938
   vertex -17.943511962890625 28.428787231445312 8.0047836303710938
  endloop
 endfacet
 facet normal -0.49879578936788094 0.45922986599637372 0.73505829067212436
  outer loop
   vertex -3.9300098419189453 38.554203033447266 5.2025232315063477
   vertex -0.064855575561523438 38.442432403564453 7.8951683044433594
   vertex 4.3920316696166992 43.283313751220703 7.895167350769043
  endloop
 endfacet
 facet normal -0.53252269221967352 0.82185708351673581 0.20241175001584225
  outer loop
   vertex 4.3920316696166992 43.283313751220703 7.895167350769043
   vertex 7.137019157409668 45.725090026855469 5.2025222778320312
   vertex -3.9300098419189453 38.554203033447266 5.2025232315063477
  endloop
 endfacet
 facet normal 0.29362923411323805 -0.017534145844771074 0.95575856083195376
  outer loop
   vertex -3.8846406936645508 87.686065673828125 5.2025337219238281
   vertex -3.4912843704223633 94.273239135742188 5.2025332450866699
   vertex -9.1000337600708008 88.094482421875 6.8123054504394531
  endloop
 endfacet
 facet normal -0.26193864357204844 0.96499894347904269 0.012852474001791842
  outer loop
   vertex -63.766586303710938 -33.961277008056641 4.5139093399047852
   vertex -61.658012390136719 -33.470073699951172 10.606613159179688
   vertex -54.867992401123047 -31.694488525390625 15.674182891845703
  endloop
 endfacet
 facet normal -0.71051903278006723 0.45638755904623768 0.53560535845442658
  outer loop
   vertex -54.867992401123047 -31.694488525390625 15.674182891845703
   vertex -40.133781433105469 -13.203811645507812 19.464328765869141
   vertex -41.933456420898438 -2.1017937660217285 7.6169376373291016
  endloop
 endfacet
 facet normal -0.71662582561221422 0.43825510887051128 0.54256786268125812
  outer loop
   vertex -41.933456420898438 -2.1017937660217285 7.6169376373291016
   vertex -53.443656921386719 -18.810272216796875 5.9103660583496094
   vertex -63.766586303710938 -33.961277008056641 4.5139093399047852
  endloop
 endfacet
 facet normal -0.73819314329146457 0.45760476362414604 0.49564983961054265
  outer loop
   vertex -54.867992401123047 -31.694488525390625 15.674182891845703
   vertex -41.933456420898438 -2.1017937660217285 7.6169376373291016
   vertex -63.766586303710938 -33.961277008056641 4.5139093399047852
  endloop
 endfacet
 facet normal 0.19660872048366593 -0.14758620126918431 0.96931074698710917
  outer loop
   vertex 38.797023773193359 2.6632094383239746 7.8951683044433594
   vertex 25.067806243896484 -14.906404495239258 8.0047836303710938
   vertex 30.291732788085938 -15.980276107788086 6.7816896438598633
  endloop
 endfacet
 facet normal 0.69930935526053561 -0.35604943107688714 0.61983483951365537
  outer loop
   vertex 30.291732788085938 -15.980276107788086 6.7816896438598633
   vertex 39.227130889892578 -1.1795639991760254 5.2025232315063477
   vertex 38.797023773193359 2.6632094383239746 7.8951683044433594
  endloop
 endfacet
 facet normal 0.19034943417906894 -0.17438302732034541 0.9661043694603082
  outer loop
   vertex 30.291732788085938 -15.980276107788086 6.7816896438598633
   vertex 25.067806243896484 -14.906404495239258 8.0047836303710938
   vertex 1.8433084487915039 -42.406040191650391 7.6169376373291016
  endloop
 endfacet
 facet normal -0.11432026931231279 0.15409058184376725 0.98142089269151467
  outer loop
   vertex 1.8433084487915039 -42.406040191650391 7.6169376373291016
   vertex 18.765172958374023 -32.321887969970703 8.0047826766967773
   vertex 30.291732788085938 -15.980276107788086 6.7816896438598633
  endloop
 endfacet
 facet normal 0.55306948901560538 -0.75843151475432813 -0.34481267051469028
  outer loop
   vertex 18.361970901489258 18.814538955688477 15.589906692504883
   vertex 26.563274383544922 25.887424468994141 13.187417984008789
   vertex 68.968856811523438 48.54962158203125 31.358180999755859
  endloop
 endfacet
 facet normal 0.99995501229938044 0.00948542973964683 0
  outer loop
   vertex -3.8846406936645508 87.686065673828125 5.2025337219238281
   vertex -3.6505002975463867 63.002960205078125 5.2025327682495117
   vertex -3.6505002975463867 63.002960205078125 3.9407362937927246
  endloop
 endfacet
 facet normal 0.9999550108289863 0.009485584265755985 -3.023091063239445e-06
  outer loop
   vertex -3.6505002975463867 63.002960205078125 3.9407362937927246
   vertex -3.8846445083618164 87.686065673828125 3.940737247467041
   vertex -3.8846406936645508 87.686065673828125 5.2025337219238281
  endloop
 endfacet
 facet normal -0.93485525441958317 0.35502908794082827 0
  outer loop
   vertex -63.766586303710938 -33.961277008056641 4.5139093399047852
   vertex -58.126560211181641 -19.110076904296875 4.5139102935791016
   vertex -58.126560211181641 -19.110076904296875 3.940737247467041
  endloop
 endfacet
 facet normal -0.93485525441958317 0.35502908794082827 0
  outer loop
   vertex -58.126560211181641 -19.110076904296875 3.940737247467041
   vertex -63.766586303710938 -33.961277008056641 3.9407362937927246
   vertex -63.766586303710938 -33.961277008056641 4.5139093399047852
  endloop
 endfacet
 facet normal 0.99822178417803054 -0.059609307858103616 -3.0178511254999167e-06
  outer loop
   vertex -3.4912843704223633 94.273239135742188 5.2025332450866699
   vertex -3.8846406936645508 87.686065673828125 5.2025337219238281
   vertex -3.8846445083618164 87.686065673828125 3.940737247467041
  endloop
 endfacet
 facet normal 0.99822178417803054 -0.059609307858103616 -3.0178511254999167e-06
  outer loop
   vertex -3.8846445083618164 87.686065673828125 3.940737247467041
   vertex -3.4912881851196289 94.273239135742188 3.9407367706298828
   vertex -3.4912843704223633 94.273239135742188 5.2025332450866699
  endloop
 endfacet
 facet normal 0.99803421362707623 -0.06267143232592956 0
  outer loop
   vertex 45.902973175048828 49.376064300537109 7.981142520904541
   vertex 45.642307281494141 45.224994659423828 7.9811429977416992
   vertex 45.642307281494141 45.224994659423828 3.940737247467041
  endloop
 endfacet
 facet normal 0.99803421362707623 -0.06267143232592956 0
  outer loop
   vertex 45.642307281494141 45.224994659423828 3.940737247467041
   vertex 45.902973175048828 49.376064300537109 3.9407367706298828
   vertex 45.902973175048828 49.376064300537109 7.981142520904541
  endloop
 endfacet
 facet normal 0.99158006827603995 0.12949505086173732 0
  outer loop
   vertex 94.720237731933594 3.8521952629089355 5.2025332450866699
   vertex 95.902641296386719 -5.2018017768859863 5.2025337219238281
   vertex 95.902641296386719 -5.2018017768859863 3.940737247467041
  endloop
 endfacet
 facet normal 0.99158006827603995 0.12949505086173732 -0
  outer loop
   vertex 95.902641296386719 -5.2018017768859863 3.940737247467041
   vertex 94.720237731933594 3.8521952629089355 3.9407367706298828
   vertex 94.720237731933594 3.8521952629089355 5.2025332450866699
  endloop
 endfacet
 facet normal -0.093846039350397148 0.99558672193749331 0
  outer loop
   vertex 39.227130889892578 -1.1795639991760254 5.2025232315063477
   vertex 63.569580078125 1.1150050163269043 5.2025327682495117
   vertex 63.569580078125 1.1150050163269043 3.9407362937927246
  endloop
 endfacet
 facet normal -0.093846039350397148 0.99558672193749331 0
  outer loop
   vertex 63.569580078125 1.1150050163269043 3.9407362937927246
   vertex 39.227130889892578 -1.1795639991760254 3.9407377243041992
   vertex 39.227130889892578 -1.1795639991760254 5.2025232315063477
  endloop
 endfacet
 facet normal -0.14475542229139898 0.98946746673007846 0
  outer loop
   vertex 37.672088623046875 48.171924591064453 7.9811429977416992
   vertex 41.787528991699219 48.773998260498047 7.9811429977416992
   vertex 41.787528991699219 48.773998260498047 3.940737247467041
  endloop
 endfacet
 facet normal -0.14475542229139898 0.98946746673007846 0
  outer loop
   vertex 41.787528991699219 48.773998260498047 3.940737247467041
   vertex 37.672088623046875 48.171924591064453 3.940737247467041
   vertex 37.672088623046875 48.171924591064453 7.9811429977416992
  endloop
 endfacet
 facet normal 0.75464529094579313 -0.65613297802605464 0
  outer loop
   vertex 89.860443115234375 -12.151180267333984 5.8339958190917969
   vertex 89.860443115234375 -12.151180267333984 3.9407382011413574
   vertex 95.902641296386719 -5.2018017768859863 3.940737247467041
  endloop
 endfacet
 facet normal 0.75464529094579325 -0.65613297802605464 0
  outer loop
   vertex 95.902641296386719 -5.2018017768859863 3.940737247467041
   vertex 95.902641296386719 -5.2018017768859863 5.2025337219238281
   vertex 89.860443115234375 -12.151180267333984 5.8339958190917969
  endloop
 endfacet
 facet normal -0.93951760198129586 0.34250062126559033 0
  outer loop
   vertex -19.039409637451172 88.110359191894531 5.8339958190917969
   vertex -19.039409637451172 88.110359191894531 3.9407382011413574
   vertex -58.126560211181641 -19.110076904296875 3.940737247467041
  endloop
 endfacet
 facet normal -0.93951760198129575 0.34250062126559028 0
  outer loop
   vertex -58.126560211181641 -19.110076904296875 3.940737247467041
   vertex -58.126560211181641 -19.110076904296875 4.5139102935791016
   vertex -19.039409637451172 88.110359191894531 5.8339958190917969
  endloop
 endfacet
 facet normal -0.073001905144801496 0.99733180127585341 3.0151605050931276e-06
  outer loop
   vertex 63.569580078125 1.1150050163269043 5.2025327682495117
   vertex 88.18792724609375 2.916999340057373 5.2025337219238281
   vertex 88.18792724609375 2.9170031547546387 3.940737247467041
  endloop
 endfacet
 facet normal -0.073002058861408661 0.99733179002877237 0
  outer loop
   vertex 88.18792724609375 2.9170031547546387 3.940737247467041
   vertex 63.569580078125 1.1150050163269043 3.9407362937927246
   vertex 63.569580078125 1.1150050163269043 5.2025327682495117
  endloop
 endfacet
 facet normal -0.54377864667114961 0.83922868362830216 0
  outer loop
   vertex -3.9300098419189453 38.554203033447266 5.2025232315063477
   vertex 7.137019157409668 45.725090026855469 5.2025222778320312
   vertex 7.137019157409668 45.725090026855469 3.9407367706298828
  endloop
 endfacet
 facet normal -0.54377864667114961 0.83922868362830216 0
  outer loop
   vertex 7.137019157409668 45.725090026855469 3.9407367706298828
   vertex -3.9300098419189453 38.554203033447266 3.9407377243041992
   vertex -3.9300098419189453 38.554203033447266 5.2025232315063477
  endloop
 endfacet
 facet normal 0.4309070211531264 -0.9023963315090211 0
  outer loop
   vertex -28.107345581054688 -66.791915893554688 4.5139093399047852
   vertex -28.107345581054688 -66.791915893554688 3.9407362937927246
   vertex -13.771786689758301 -59.946483612060547 3.940737247467041
  endloop
 endfacet
 facet normal 0.4309070211531264 -0.9023963315090211 0
  outer loop
   vertex -13.771786689758301 -59.946483612060547 3.940737247467041
   vertex -13.771786689758301 -59.946483612060547 4.5139102935791016
   vertex -28.107345581054688 -66.791915893554688 4.5139093399047852
  endloop
 endfacet
 facet normal -0.14171966197007979 0.98990683269239355 0
  outer loop
   vertex 88.18792724609375 2.916999340057373 5.2025337219238281
   vertex 94.720237731933594 3.8521952629089355 5.2025332450866699
   vertex 94.720237731933594 3.8521952629089355 3.9407367706298828
  endloop
 endfacet
 facet normal -0.14171909550006129 0.98990691378618434 2.9927133842001899e-06
  outer loop
   vertex 94.720237731933594 3.8521952629089355 3.9407367706298828
   vertex 88.18792724609375 2.9170031547546387 3.940737247467041
   vertex 88.18792724609375 2.916999340057373 5.2025337219238281
  endloop
 endfacet
 facet normal -0.079875910467887737 0.99680481485942163 0
  outer loop
   vertex 7.137019157409668 45.725090026855469 5.2025222778320312
   vertex 37.672088623046875 48.171924591064453 7.9811429977416992
   vertex 37.672088623046875 48.171924591064453 3.940737247467041
  endloop
 endfacet
 facet normal -0.079875910467887751 0.99680481485942174 0
  outer loop
   vertex 37.672088623046875 48.171924591064453 3.940737247467041
   vertex 7.137019157409668 45.725090026855469 3.9407367706298828
   vertex 7.137019157409668 45.725090026855469 5.2025222778320312
  endloop
 endfacet
 facet normal -0.92854276178244022 0.37122545648357486 0
  outer loop
   vertex -75.949775695800781 -64.434974670410156 5.7305870056152344
   vertex -63.766586303710938 -33.961277008056641 4.5139093399047852
   vertex -63.766586303710938 -33.961277008056641 3.9407362937927246
  endloop
 endfacet
 facet normal -0.92854276178244022 0.37122545648357491 0
  outer loop
   vertex -63.766586303710938 -33.961277008056641 3.9407362937927246
   vertex -75.949775695800781 -64.434974670410156 3.9407367706298828
   vertex -75.949775695800781 -64.434974670410156 5.7305870056152344
  endloop
 endfacet
 facet normal -0.95864666338317395 0.28459897186094607 0
  outer loop
   vertex -79.918792724609375 -77.80426025390625 5.9743099212646484
   vertex -75.949775695800781 -64.434974670410156 5.7305870056152344
   vertex -75.949775695800781 -64.434974670410156 3.9407367706298828
  endloop
 endfacet
 facet normal -0.95864666338317395 0.28459897186094607 0
  outer loop
   vertex -75.949775695800781 -64.434974670410156 3.9407367706298828
   vertex -79.918792724609375 -77.80426025390625 3.9407377243041992
   vertex -79.918792724609375 -77.80426025390625 5.9743099212646484
  endloop
 endfacet
 facet normal 0.99803421362707623 -0.06267143232592956 0
  outer loop
   vertex 45.642307281494141 45.224994659423828 7.9811429977416992
   vertex 45.381641387939453 41.073925018310547 7.9811429977416992
   vertex 45.381641387939453 41.073925018310547 3.940737247467041
  endloop
 endfacet
 facet normal 0.99803421362707623 -0.06267143232592956 0
  outer loop
   vertex 45.381641387939453 41.073925018310547 3.940737247467041
   vertex 45.642307281494141 45.224994659423828 3.940737247467041
   vertex 45.642307281494141 45.224994659423828 7.9811429977416992
  endloop
 endfacet
 facet normal 0.44652763110735222 -0.89476984451737995 0
  outer loop
   vertex -28.107345581054688 -66.791915893554688 4.5139093399047852
   vertex -57.472652435302734 -81.446434020996094 5.7305870056152344
   vertex -57.472652435302734 -81.446434020996094 3.9407367706298828
  endloop
 endfacet
 facet normal 0.44652763110735227 -0.89476984451738006 0
  outer loop
   vertex -57.472652435302734 -81.446434020996094 3.9407367706298828
   vertex -28.107345581054688 -66.791915893554688 3.9407362937927246
   vertex -28.107345581054688 -66.791915893554688 4.5139093399047852
  endloop
 endfacet
 facet normal -0.14475349504261042 0.98946774867751464 0
  outer loop
   vertex 41.787528991699219 48.773998260498047 7.9811429977416992
   vertex 45.902973175048828 49.376064300537109 7.981142520904541
   vertex 45.902973175048828 49.376064300537109 3.9407367706298828
  endloop
 endfacet
 facet normal -0.14475349504261042 0.98946774867751464 0
  outer loop
   vertex 45.902973175048828 49.376064300537109 3.9407367706298828
   vertex 41.787528991699219 48.773998260498047 3.940737247467041
   vertex 41.787528991699219 48.773998260498047 7.9811429977416992
  endloop
 endfacet
 facet normal 0.41880564525486713 -0.90807589523269161 0
  outer loop
   vertex -13.771786689758301 -59.946483612060547 4.5139102935791016
   vertex -13.771786689758301 -59.946483612060547 3.940737247467041
   vertex 89.860443115234375 -12.151180267333984 3.9407382011413574
  endloop
 endfacet
 facet normal 0.41880564525486719 -0.90807589523269172 0
  outer loop
   vertex 89.860443115234375 -12.151180267333984 3.9407382011413574
   vertex 89.860443115234375 -12.151180267333984 5.8339958190917969
   vertex -13.771786689758301 -59.946483612060547 4.5139102935791016
  endloop
 endfacet
 facet normal 0.0472885674916989 0.99888126991377846 -1.4296407761288681e-07
  outer loop
   vertex -12.611935615539551 94.705024719238281 5.2025337219238281
   vertex -3.4912843704223633 94.273239135742188 5.2025332450866699
   vertex -3.4912881851196289 94.273239135742188 3.9407367706298828
  endloop
 endfacet
 facet normal 0.04728858722585149 0.99888126897954344 -0
  outer loop
   vertex -3.4912881851196289 94.273239135742188 3.9407367706298828
   vertex -12.611935615539551 94.705024719238281 3.940737247467041
   vertex -12.611935615539551 94.705024719238281 5.2025337219238281
  endloop
 endfacet
 facet normal 0.88121008703634596 -0.47272484862274361 0
  outer loop
   vertex 45.461021423339844 10.441080093383789 5.2025222778320312
   vertex 39.227130889892578 -1.1795639991760254 5.2025232315063477
   vertex 39.227130889892578 -1.1795639991760254 3.9407377243041992
  endloop
 endfacet
 facet normal 0.88121008703634596 -0.47272484862274361 0
  outer loop
   vertex 39.227130889892578 -1.1795639991760254 3.9407377243041992
   vertex 45.461021423339844 10.441080093383789 3.9407367706298828
   vertex 45.461021423339844 10.441080093383789 5.2025222778320312
  endloop
 endfacet
 facet normal 0.99999664250226072 0.0025913286564352958 0
  outer loop
   vertex 45.381641387939453 41.073925018310547 7.9811429977416992
   vertex 45.461021423339844 10.441080093383789 5.2025222778320312
   vertex 45.461021423339844 10.441080093383789 3.9407367706298828
  endloop
 endfacet
 facet normal 0.99999664250226084 0.0025913286564352958 -0
  outer loop
   vertex 45.461021423339844 10.441080093383789 3.9407367706298828
   vertex 45.381641387939453 41.073925018310547 3.940737247467041
   vertex 45.381641387939453 41.073925018310547 7.9811429977416992
  endloop
 endfacet
 facet normal 0.38547417523307892 -0.92271862462420129 0
  outer loop
   vertex -70.469123840332031 -86.504348754882812 5.9743099212646484
   vertex -84.65521240234375 -92.430717468261719 7.3210644721984863
   vertex -84.65521240234375 -92.430717468261719 3.9407362937927246
  endloop
 endfacet
 facet normal 0.38547417523307886 -0.92271862462420118 0
  outer loop
   vertex -84.65521240234375 -92.430717468261719 3.9407362937927246
   vertex -70.469123840332031 -86.504348754882812 3.9407377243041992
   vertex -70.469123840332031 -86.504348754882812 5.9743099212646484
  endloop
 endfacet
 facet normal -0.95136198830492025 0.30807526224692056 0
  outer loop
   vertex -84.65521240234375 -92.430717468261719 7.3210644721984863
   vertex -79.918792724609375 -77.80426025390625 5.9743099212646484
   vertex -79.918792724609375 -77.80426025390625 3.9407377243041992
  endloop
 endfacet
 facet normal -0.95136198830492025 0.30807526224692061 0
  outer loop
   vertex -79.918792724609375 -77.80426025390625 3.9407377243041992
   vertex -84.65521240234375 -92.430717468261719 3.9407362937927246
   vertex -84.65521240234375 -92.430717468261719 7.3210644721984863
  endloop
 endfacet
 facet normal 0.99993465578498486 -0.011431717288480428 0
  outer loop
   vertex -3.6505002975463867 63.002960205078125 5.2025327682495117
   vertex -3.9300098419189453 38.554203033447266 5.2025232315063477
   vertex -3.9300098419189453 38.554203033447266 3.9407377243041992
  endloop
 endfacet
 facet normal 0.99993465578498486 -0.011431717288480428 0
  outer loop
   vertex -3.9300098419189453 38.554203033447266 3.9407377243041992
   vertex -3.6505002975463867 63.002960205078125 3.9407362937927246
   vertex -3.6505002975463867 63.002960205078125 5.2025327682495117
  endloop
 endfacet
 facet normal -0.71612631818673589 0.69797069881214202 0
  outer loop
   vertex -12.611935615539551 94.705024719238281 5.2025337219238281
   vertex -12.611935615539551 94.705024719238281 3.940737247467041
   vertex -19.039409637451172 88.110359191894531 3.9407382011413574
  endloop
 endfacet
 facet normal -0.71612631818673589 0.69797069881214213 0
  outer loop
   vertex -19.039409637451172 88.110359191894531 3.9407382011413574
   vertex -19.039409637451172 88.110359191894531 5.8339958190917969
   vertex -12.611935615539551 94.705024719238281 5.2025337219238281
  endloop
 endfacet
 facet normal -5.1884434682993644e-08 8.3780526056420228e-09 -0.99999999999999867
  outer loop
   vertex -12.611935615539551 94.705024719238281 3.940737247467041
   vertex -3.4912881851196289 94.273239135742188 3.9407367706298828
   vertex -33.933826446533203 -37.33929443359375 3.940737247467041
  endloop
 endfacet
 facet normal 4.3282911510946519e-08 -1.7486430582000356e-07 -0.99999999999998379
  outer loop
   vertex 89.860443115234375 -12.151180267333984 3.9407382011413574
   vertex -33.933826446533203 -37.33929443359375 3.940737247467041
   vertex 95.902641296386719 -5.2018017768859863 3.940737247467041
  endloop
 endfacet
 facet normal -1.7783809154495021e-07 2.8716452156679985e-08 -0.99999999999998379
  outer loop
   vertex -12.611935615539551 94.705024719238281 3.940737247467041
   vertex -33.933826446533203 -37.33929443359375 3.940737247467041
   vertex -19.039409637451172 88.110359191894531 3.9407382011413574
  endloop
 endfacet
 facet normal -9.7925199510120211e-08 6.3070999738598508e-08 -0.99999999999999323
  outer loop
   vertex -57.472652435302734 -81.446434020996094 3.9407367706298828
   vertex -70.469123840332031 -86.504348754882812 3.9407377243041992
   vertex -33.933826446533203 -37.33929443359375 3.940737247467041
  endloop
 endfacet
 facet normal 7.0930965438701823e-08 -9.2390914861381661e-08 -0.99999999999999323
  outer loop
   vertex -79.918792724609375 -77.80426025390625 3.9407377243041992
   vertex -75.949775695800781 -64.434974670410156 3.9407367706298828
   vertex -33.933826446533203 -37.33929443359375 3.940737247467041
  endloop
 endfacet
 facet normal -7.4151083690885266e-08 1.6321475181530203e-07 -0.9999999999999839
  outer loop
   vertex 39.227130889892578 -1.1795639991760254 3.9407377243041992
   vertex 63.569580078125 1.1150050163269043 3.9407362937927246
   vertex -33.933826446533203 -37.33929443359375 3.940737247467041
  endloop
 endfacet
 facet normal 1.6877344641275916e-07 -6.0440097357300532e-08 -0.9999999999999839
  outer loop
   vertex -3.6505002975463867 63.002960205078125 3.9407362937927246
   vertex -3.9300098419189453 38.554203033447266 3.9407377243041992
   vertex -33.933826446533203 -37.33929443359375 3.940737247467041
  endloop
 endfacet
 facet normal 4.979555929715901e-08 -1.510601170941847e-07 -0.99999999999998745
  outer loop
   vertex 63.569580078125 1.1150050163269043 3.9407362937927246
   vertex 88.18792724609375 2.9170031547546387 3.940737247467041
   vertex -33.933826446533203 -37.33929443359375 3.940737247467041
  endloop
 endfacet
 facet normal -1.5465162009648393e-07 3.7169696334562606e-08 -0.99999999999998734
  outer loop
   vertex -3.8846445083618164 87.686065673828125 3.940737247467041
   vertex -3.6505002975463867 63.002960205078125 3.9407362937927246
   vertex -33.933826446533203 -37.33929443359375 3.940737247467041
  endloop
 endfacet
 facet normal -1.2903861527260125e-07 3.9145234249558288e-07 -0.99999999999991518
  outer loop
   vertex 88.18792724609375 2.9170031547546387 3.940737247467041
   vertex 94.720237731933594 3.8521952629089355 3.9407367706298828
   vertex -33.933826446533203 -37.33929443359375 3.940737247467041
  endloop
 endfacet
 facet normal 4.0075876940015179e-07 -9.6320243866331851e-08 -0.99999999999991518
  outer loop
   vertex -3.4912881851196289 94.273239135742188 3.9407367706298828
   vertex -3.8846445083618164 87.686065673828125 3.940737247467041
   vertex -33.933826446533203 -37.33929443359375 3.940737247467041
  endloop
 endfacet
 facet normal 6.4065650319310629e-08 -1.1643524719229932e-07 -0.99999999999999112
  outer loop
   vertex 45.461021423339844 10.441080093383789 3.9407367706298828
   vertex 39.227130889892578 -1.1795639991760254 3.9407377243041992
   vertex -33.933826446533203 -37.33929443359375 3.940737247467041
  endloop
 endfacet
 facet normal -1.2132152433198713e-07 5.4246359198826142e-08 -0.99999999999999123
  outer loop
   vertex -3.9300098419189453 38.554203033447266 3.9407377243041992
   vertex 7.137019157409668 45.725090026855469 3.9407367706298828
   vertex -33.933826446533203 -37.33929443359375 3.940737247467041
  endloop
 endfacet
 facet normal -1.3486151071576913e-07 1.4147460026762789e-07 -0.99999999999998102
  outer loop
   vertex -84.65521240234375 -92.430717468261719 3.9407362937927246
   vertex -79.918792724609375 -77.80426025390625 3.9407377243041992
   vertex -33.933826446533203 -37.33929443359375 3.940737247467041
  endloop
 endfacet
 facet normal -2.9486099265334859e-08 2.6546843183452665e-08 -0.99999999999999933
  outer loop
   vertex -28.107345581054688 -66.791915893554688 3.9407362937927246
   vertex -57.472652435302734 -81.446434020996094 3.9407367706298828
   vertex -33.933826446533203 -37.33929443359375 3.940737247467041
  endloop
 endfacet
 facet normal 2.8887823590220495e-08 -2.7196666230364313e-08 -0.99999999999999933
  outer loop
   vertex -75.949775695800781 -64.434974670410156 3.9407367706298828
   vertex -63.766586303710938 -33.961277008056641 3.9407362937927246
   vertex -33.933826446533203 -37.33929443359375 3.940737247467041
  endloop
 endfacet
 facet normal -1.5349808967614083e-08 1.5526428935657327e-08 -0.99999999999999978
  outer loop
   vertex 45.381641387939453 41.073925018310547 3.940737247467041
   vertex 45.461021423339844 10.441080093383789 3.9407367706298828
   vertex -33.933826446533203 -37.33929443359375 3.940737247467041
  endloop
 endfacet
 facet normal 1.6739278354987562e-08 -1.4017240753726823e-08 -0.99999999999999978
  outer loop
   vertex 7.137019157409668 45.725090026855469 3.9407367706298828
   vertex 37.672088623046875 48.171924591064453 3.940737247467041
   vertex -33.933826446533203 -37.33929443359375 3.940737247467041
  endloop
 endfacet
 facet normal 1.2749081197625401e-07 -1.2287668209057658e-07 -0.99999999999998435
  outer loop
   vertex 45.902973175048828 49.376064300537109 3.9407367706298828
   vertex 45.642307281494141 45.224994659423828 3.940737247467041
   vertex -33.933826446533203 -37.33929443359375 3.940737247467041
  endloop
 endfacet
 facet normal -1.3297061938812447e-07 1.1692405688513294e-07 -0.99999999999998435
  outer loop
   vertex 41.787528991699219 48.773998260498047 3.940737247467041
   vertex 45.902973175048828 49.376064300537109 3.9407367706298828
   vertex -33.933826446533203 -37.33929443359375 3.940737247467041
  endloop
 endfacet
 facet normal -0 0 -1
  outer loop
   vertex 45.642307281494141 45.224994659423828 3.940737247467041
   vertex 45.381641387939453 41.073925018310547 3.940737247467041
   vertex -33.933826446533203 -37.33929443359375 3.940737247467041
  endloop
 endfacet
 facet normal 1.5211328925482832e-07 -1.2273639278914149e-07 -0.9999999999999809
  outer loop
   vertex -70.469123840332031 -86.504348754882812 3.9407377243041992
   vertex -84.65521240234375 -92.430717468261719 3.9407362937927246
   vertex -33.933826446533203 -37.33929443359375 3.940737247467041
  endloop
 endfacet
 facet normal 0 0 -1
  outer loop
   vertex 37.672088623046875 48.171924591064453 3.940737247467041
   vertex 41.787528991699219 48.773998260498047 3.940737247467041
   vertex -33.933826446533203 -37.33929443359375 3.940737247467041
  endloop
 endfacet
 facet normal 4.6655880728769472e-08 4.1609671804612827e-08 -0.999999999999998
  outer loop
   vertex -28.107345581054688 -66.791915893554688 3.9407362937927246
   vertex -33.933826446533203 -37.33929443359375 3.940737247467041
   vertex -13.771786689758301 -59.946483612060547 3.940737247467041
  endloop
 endfacet
 facet normal 3.7620799196515345e-08 4.9928088109753398e-08 -0.999999999999998
  outer loop
   vertex -63.766586303710938 -33.961277008056641 3.9407362937927246
   vertex -58.126560211181641 -19.110076904296875 3.940737247467041
   vertex -33.933826446533203 -37.33929443359375 3.940737247467041
  endloop
 endfacet
 facet normal 6.5204894937482173e-09 5.815246086930855e-09 -1
  outer loop
   vertex -13.771786689758301 -59.946483612060547 3.940737247467041
   vertex -33.933826446533203 -37.33929443359375 3.940737247467041
   vertex 89.860443115234375 -12.151180267333984 3.9407382011413574
  endloop
 endfacet
 facet normal 5.2577718461327452e-09 6.9778022158288367e-09 -1
  outer loop
   vertex -19.039409637451172 88.110359191894531 3.9407382011413574
   vertex -33.933826446533203 -37.33929443359375 3.940737247467041
   vertex -58.126560211181641 -19.110076904296875 3.940737247467041
  endloop
 endfacet
 facet normal 1.2627824264988877e-08 -5.1016801944014797e-08 -0.99999999999999845
  outer loop
   vertex 94.720237731933594 3.8521952629089355 3.9407367706298828
   vertex 95.902641296386719 -5.2018017768859863 3.940737247467041
   vertex -33.933826446533203 -37.33929443359375 3.940737247467041
  endloop
 endfacet
 facet normal 0.67729199749266689 -0.50184696810283069 0.53798250040163009
  outer loop
   vertex 43.891311645507812 71.637924194335938 31.358180999755859
   vertex 17.716520309448242 19.408790588378906 15.589906692504883
   vertex 44.168636322021484 48.139961242675781 9.0894060134887695
  endloop
 endfacet
 facet normal 0.69192356583678183 -0.49230124932137698 0.52809209325298945
  outer loop
   vertex 44.168636322021484 48.139961242675781 9.0894060134887695
   vertex 53.761177062988281 85.509902954101562 31.358180999755859
   vertex 43.891311645507812 71.637924194335938 31.358180999755859
  endloop
 endfacet
 facet normal -0.18311752194218489 -0.19889325469304514 0.96276136523821976
  outer loop
   vertex 17.716520309448242 19.408790588378906 15.589906692504883
   vertex 43.891311645507812 71.637924194335938 31.358180999755859
   vertex 43.177356719970703 72.295249938964844 31.358180999755859
  endloop
 endfacet
 facet normal -0.18311715718491908 -0.19889295006421503 0.96276149754716878
  outer loop
   vertex 18.361970901489258 18.814538955688477 15.589906692504883
   vertex 68.968856811523438 48.54962158203125 31.358180999755859
   vertex 68.254905700683594 49.206943511962891 31.358180999755859
  endloop
 endfacet
 facet normal -0.3977174385385755 0.53328035734619206 -0.74661429101714372
  outer loop
   vertex 44.168636322021484 48.139961242675781 9.0894060134887695
   vertex 39.254684448242188 44.637657165527344 9.2054691314697266
   vertex 53.184318542480469 86.041000366210938 31.358180999755859
  endloop
 endfacet
 facet normal 0.37118708005242762 0.4031697857088441 -0.83646534625986591
  outer loop
   vertex 53.761177062988281 85.509902954101562 31.358180999755859
   vertex 44.168636322021484 48.139961242675781 9.0894060134887695
   vertex 53.184318542480469 86.041000366210938 31.358180999755859
  endloop
 endfacet
 facet normal 0 0 1
  outer loop
   vertex 43.891311645507812 71.637924194335938 31.358180999755859
   vertex 53.761177062988281 85.509902954101562 31.358180999755859
   vertex 53.184318542480469 86.041000366210938 31.358180999755859
  endloop
 endfacet
 facet normal -0 0 1
  outer loop
   vertex 53.184318542480469 86.041000366210938 31.358180999755859
   vertex 43.177356719970703 72.295249938964844 31.358180999755859
   vertex 43.891311645507812 71.637924194335938 31.358180999755859
  endloop
 endfacet
 facet normal -0 0 1
  outer loop
   vertex 81.40045166015625 60.063068389892578 31.358180999755859
   vertex 68.254905700683594 49.206943511962891 31.358180999755859
   vertex 68.968856811523438 48.54962158203125 31.358180999755859
  endloop
 endfacet
 facet normal 0 0 1
  outer loop
   vertex 68.968856811523438 48.54962158203125 31.358180999755859
   vertex 81.842636108398438 59.655963897705078 31.358180999755859
   vertex 81.40045166015625 60.063068389892578 31.358180999755859
  endloop
 endfacet
 facet normal 0.00014366229588255947 0.019960717897909 0.99980075470172791
  outer loop
   vertex -9.1000337600708008 88.094482421875 6.8123054504394531
   vertex -14.515931129455566 88.133438110351562 6.8123059272766113
   vertex -17.943511962890625 28.428787231445312 8.0047836303710938
  endloop
 endfacet
endsolid
